<svg width="7680" height="280" viewBox="0 0 7680 280" fill="none" xmlns="http://www.w3.org/2000/svg">
<path d="M0 88.792L160 72.9083C320 56.9815 640 25.2142 960 30.6095C1280 36.0048 1600 78.5626 1920 77.354C2240 76.1455 2560 31.0843 2880 30.0916C3200 29.0988 3520 72.0882 3680 93.6261L3840 115.121V280H3680C3520 280 3200 280 2880 280C2560 280 2240 280 1920 280C1600 280 1280 280 960 280C640 280 320 280 160 280H0V88.792Z" fill="#00A390"/>
<path d="M0 0L160 18.4984C320 37.0426 640 74.0394 960 83.6787C1280 93.318 1600 75.6 1920 61.141C2240 46.6819 2560 35.482 2880 40.9902C3200 46.4984 3520 68.7148 3680 79.7771L3840 90.8852V280H3680C3520 280 3200 280 2880 280C2560 280 2240 280 1920 280C1600 280 1280 280 960 280C640 280 320 280 160 280H0V0Z" fill="#008878"/>
<path d="M0 198.29L160 183.47C320 168.65 640 139.01 960 128.596C1280 118.182 1600 126.994 1920 139.811C2240 152.628 2560 169.451 2880 180.265C3200 191.08 3520 195.887 3680 198.29L3840 200.693V280H3680C3520 280 3200 280 2880 280C2560 280 2240 280 1920 280C1600 280 1280 280 960 280C640 280 320 280 160 280H0V198.29Z" fill="#006E61"/>
<path d="M7680 88.792L7520 72.9083C7360 56.9815 7040 25.2142 6720 30.6095C6400 36.0048 6080 78.5626 5760 77.354C5440 76.1455 5120 31.0843 4800 30.0916C4480 29.0988 4160 72.0882 4000 93.6261L3840 115.121V280H4000C4160 280 4480 280 4800 280C5120 280 5440 280 5760 280C6080 280 6400 280 6720 280C7040 280 7360 280 7520 280H7680V88.792Z" fill="#00A390"/>
<path d="M7680 0L7520 18.4984C7360 37.0426 7040 74.0394 6720 83.6787C6400 93.318 6080 75.6 5760 61.141C5440 46.6819 5120 35.482 4800 40.9902C4480 46.4984 4160 68.7148 4000 79.7771L3840 90.8852V280H4000C4160 280 4480 280 4800 280C5120 280 5440 280 5760 280C6080 280 6400 280 6720 280C7040 280 7360 280 7520 280H7680V0Z" fill="#008878"/>
<path d="M7680 198.29L7520 183.47C7360 168.65 7040 139.01 6720 128.596C6400 118.182 6080 126.994 5760 139.811C5440 152.628 5120 169.451 4800 180.265C4480 191.08 4160 195.887 4000 198.29L3840 200.693V280H4000C4160 280 4480 280 4800 280C5120 280 5440 280 5760 280C6080 280 6400 280 6720 280C7040 280 7360 280 7520 280H7680V198.29Z" fill="#006E61"/>
</svg>
