<svg width="36" height="35" viewBox="0 0 36 35" fill="none" xmlns="http://www.w3.org/2000/svg">
<g clip-path="url(#clip0_5_239)">
<path fill-rule="evenodd" clip-rule="evenodd" d="M25.4569 1.84048C31.2993 4.60802 35.4509 10.6044 35.4509 17.6768C35.4509 27.2101 27.6095 35.051 18.0768 35.051C15.1553 35.051 12.3878 34.2821 10.0814 33.0521C11.0039 33.206 12.0803 33.3596 13.0028 33.3596C18.0768 33.3596 22.5361 31.3607 25.918 27.9782C29.1469 24.7493 31.1456 20.1367 31.1456 15.2166C31.1456 10.1427 29.1467 5.68334 25.918 2.3014C25.7641 2.14747 25.6105 1.99389 25.4566 1.83997L25.4569 1.84048Z" fill="white"/>
<path fill-rule="evenodd" clip-rule="evenodd" d="M28.6862 20.598C27.7637 23.0579 26.5337 25.2104 24.6886 26.9019C21.7672 29.8233 17.6162 31.6683 13.0032 31.6683C10.5432 31.6683 8.08321 31.2069 5.93071 30.1309C2.85569 27.2094 0.856786 23.0584 0.703186 18.4454C1.31819 19.3679 1.93318 20.1368 2.70209 20.9054C5.93098 24.2878 10.5436 26.2867 15.6173 26.2867C20.5372 26.2867 25.1505 24.2878 28.3789 20.9054C28.5328 20.9054 28.5328 20.7514 28.6864 20.5978L28.6862 20.598Z" fill="white"/>
<path fill-rule="evenodd" clip-rule="evenodd" d="M18.0768 0.302825H19.9218C16.2318 1.07176 13.0029 2.7628 10.3886 5.37675C7.15966 8.60564 5.16103 13.2182 5.16103 18.1383C5.16103 19.2147 5.16103 20.1372 5.46853 21.2134C4.85353 20.7519 4.39214 20.2909 3.7771 19.8294C2.54712 18.5994 1.6246 17.0619 0.702087 15.5244C1.77848 6.91403 9.1585 0.30246 18.0763 0.30246L18.0768 0.302825Z" fill="white"/>
</g>
<defs>
<clipPath id="clip0_5_239">
<rect width="36" height="35" fill="white"/>
</clipPath>
</defs>
</svg>
